<?xml version="1.0" standalone="no"?>
<!DOCTYPE svg PUBLIC "-//W3C//DTD SVG 20010904//EN"
 "http://www.w3.org/TR/2001/REC-SVG-20010904/DTD/svg10.dtd">
<svg version="1.0" xmlns="http://www.w3.org/2000/svg"
 width="512.000000pt" height="512.000000pt" viewBox="0 0 512.000000 512.000000"
 preserveAspectRatio="xMidYMid meet">

<g transform="translate(0.000000,512.000000) scale(0.100000,-0.100000)"
fill="#000000" stroke="none">
<path d="M2225 4213 c-172 -15 -407 -83 -570 -165 -464 -232 -785 -648 -897
-1162 -30 -138 -33 -492 -5 -631 45 -223 162 -498 285 -669 239 -332 607 -569
1017 -656 130 -28 394 -38 532 -20 637 79 1173 516 1373 1119 105 315 117 611
40 926 -77 314 -229 576 -462 801 -148 143 -241 206 -437 300 -267 129 -576
184 -876 157z m421 -322 c536 -104 951 -516 1070 -1061 27 -121 27 -419 0
-540 -120 -551 -550 -968 -1097 -1066 -60 -10 -147 -16 -239 -16 -281 0 -515
73 -765 238 -296 195 -514 545 -570 914 -72 472 122 966 496 1261 196 155 441
258 687 288 107 14 300 5 418 -18z"/>
<path d="M2352 3720 c-28 -12 -42 -48 -42 -111 0 -40 5 -55 25 -74 13 -14 36
-25 50 -25 14 0 37 11 50 25 21 20 25 34 25 83 0 42 -5 66 -17 80 -22 25 -60
35 -91 22z"/>
<path d="M1790 3560 c-27 -27 -25 -74 6 -127 30 -51 60 -67 103 -52 44 16 59
59 36 110 -39 85 -100 114 -145 69z"/>
<path d="M2883 3558 c-12 -13 -31 -42 -43 -65 -19 -37 -20 -45 -8 -70 18 -37
58 -56 92 -43 34 13 80 86 80 129 0 63 -78 95 -121 49z"/>
<path d="M2335 3295 l-25 -24 0 -310 c0 -215 -3 -312 -11 -317 -6 -3 -17 -21
-24 -38 -11 -26 -48 -51 -221 -151 -115 -66 -217 -128 -226 -137 -41 -40 -8
-121 49 -121 20 0 100 40 244 123 198 115 217 123 261 121 41 -2 52 2 85 33
34 31 38 39 38 84 0 38 -5 56 -22 74 -23 24 -23 27 -23 334 l0 311 -23 21
c-31 29 -72 28 -102 -3z"/>
<path d="M1390 3160 c-44 -44 -20 -105 57 -144 68 -34 127 -4 121 62 -3 32
-10 42 -52 70 -55 37 -97 41 -126 12z"/>
<path d="M3265 3155 c-69 -43 -82 -80 -44 -129 26 -33 55 -33 118 -2 56 29 78
67 62 109 -20 52 -73 60 -136 22z"/>
<path d="M1240 2610 c-11 -11 -20 -33 -20 -50 0 -51 30 -70 108 -70 80 0 102
15 102 72 0 52 -24 68 -103 68 -54 0 -71 -4 -87 -20z"/>
<path d="M3360 2610 c-11 -11 -20 -33 -20 -50 0 -51 30 -70 108 -70 80 0 102
15 102 72 0 52 -24 68 -103 68 -54 0 -71 -4 -87 -20z"/>
<path d="M1445 2103 c-75 -39 -98 -100 -55 -143 29 -29 71 -25 126 13 42 27
49 37 52 69 6 68 -54 98 -123 61z"/>
<path d="M3221 2094 c-38 -49 -25 -88 43 -128 67 -39 117 -31 137 21 15 40 -6
78 -58 108 -59 33 -96 32 -122 -1z"/>
<path d="M1843 1740 c-29 -12 -73 -89 -73 -128 0 -67 78 -97 124 -47 12 13 31
42 41 64 15 34 16 45 6 69 -7 16 -24 34 -37 41 -29 13 -31 13 -61 1z"/>
<path d="M2870 1737 c-14 -7 -31 -25 -38 -40 -12 -25 -11 -33 8 -70 43 -84 87
-107 137 -72 33 23 37 60 12 111 -36 71 -74 94 -119 71z"/>
<path d="M2333 1584 c-23 -23 -25 -31 -21 -90 5 -76 21 -98 74 -98 53 0 74 30
74 106 0 49 -4 63 -25 83 -31 32 -69 32 -102 -1z"/>
</g>
</svg>
