<?xml version="1.0" standalone="no"?>
<!DOCTYPE svg PUBLIC "-//W3C//DTD SVG 20010904//EN"
 "http://www.w3.org/TR/2001/REC-SVG-20010904/DTD/svg10.dtd">
<svg version="1.0" xmlns="http://www.w3.org/2000/svg"
 width="512.000000pt" height="512.000000pt" viewBox="0 0 512.000000 512.000000"
 preserveAspectRatio="xMidYMid meet">

<g transform="translate(0.000000,512.000000) scale(0.100000,-0.100000)"
fill="#000000" stroke="none">
<path d="M2056 3974 c-1250 -498 -1980 -794 -2000 -810 -17 -15 -36 -36 -43
-48 -10 -16 -12 -326 -13 -1349 0 -1222 1 -1331 17 -1357 9 -16 27 -33 40 -39
34 -16 4276 -15 4306 0 12 6 30 21 39 33 16 19 18 74 18 752 l0 730 320 128
c176 70 331 137 344 147 58 45 78 -13 -449 1311 -269 672 -494 1232 -502 1244
-16 25 -55 44 -86 43 -12 0 -908 -353 -1991 -785z m2382 -551 c242 -610 442
-1114 444 -1121 2 -9 -68 -42 -207 -98 -115 -46 -220 -87 -232 -90 l-23 -6 0
502 0 502 -29 29 c-16 16 -38 29 -49 29 -17 0 -37 43 -122 258 -121 302 -143
347 -179 361 -14 5 -73 12 -131 14 -73 4 -124 12 -169 27 -80 29 -200 108
-246 165 -46 56 -83 71 -138 58 -40 -10 -2034 -801 -2087 -828 -14 -7 -34 -22
-44 -34 -19 -20 -26 -21 -325 -20 -230 0 -300 3 -283 11 24 12 3363 1345 3373
1347 3 1 204 -497 447 -1106z m-1025 371 c114 -103 288 -178 443 -192 l79 -7
84 -208 c45 -115 81 -210 79 -213 -3 -2 -547 -3 -1209 -2 l-1204 3 830 332
c457 182 834 332 839 332 4 1 31 -20 59 -45z m807 -2029 l0 -1205 -2010 0
-2010 0 0 1205 0 1205 2010 0 2010 0 0 -1205z"/>
<path d="M930 2757 c-25 -13 -39 -35 -83 -137 -52 -118 -157 -226 -277 -284
-30 -15 -75 -37 -100 -49 -34 -17 -48 -31 -57 -57 -17 -49 -17 -881 0 -930 8
-24 23 -40 47 -52 19 -9 71 -33 115 -54 139 -65 234 -177 309 -367 29 -72 -59
-68 1345 -65 1439 3 1280 -9 1326 105 69 173 199 302 364 362 107 39 102 8 99
548 l-3 463 -25 23 c-14 13 -56 36 -93 52 -157 65 -245 151 -332 328 -34 69
-58 106 -75 114 -37 19 -2524 18 -2560 0z m2471 -239 c64 -138 206 -283 352
-358 l67 -35 0 -360 0 -361 -61 -29 c-147 -69 -280 -203 -355 -358 l-28 -57
-1162 0 -1162 0 -48 86 c-79 141 -193 252 -335 327 l-64 34 -3 359 -2 360 57
28 c158 77 316 238 371 377 l15 39 1167 0 1167 0 24 -52z"/>
<path d="M2082 2355 c-263 -59 -454 -286 -469 -555 -16 -284 163 -534 442
-616 93 -27 239 -23 340 10 197 63 354 233 401 432 22 95 15 246 -15 334 -62
178 -213 325 -391 381 -85 27 -225 33 -308 14z m276 -217 c104 -39 188 -128
233 -247 31 -83 24 -203 -17 -291 -95 -202 -335 -288 -535 -193 -249 119 -305
446 -110 641 113 113 276 147 429 90z"/>
<path d="M1040 1898 c-54 -28 -82 -72 -82 -133 0 -85 61 -145 147 -145 27 0
60 8 77 18 67 39 91 135 52 203 -20 35 -92 79 -129 79 -11 0 -41 -10 -65 -22z
m111 -115 c11 -30 -16 -65 -48 -61 -33 4 -48 27 -39 61 10 42 71 42 87 0z"/>
<path d="M3279 1911 c-46 -15 -67 -30 -89 -66 -18 -29 -22 -47 -18 -91 4 -47
10 -61 41 -92 32 -31 43 -36 94 -39 75 -5 116 19 145 83 23 52 19 101 -13 145
-36 52 -105 77 -160 60z m81 -121 c14 -26 0 -60 -28 -67 -33 -8 -56 7 -60 40
-6 48 65 70 88 27z"/>
</g>
</svg>
